<?xml version="1.0" encoding="iso-8859-1"?>
<!-- Generator: Adobe Illustrator 19.0.0, SVG Export Plug-In . SVG Version: 6.00 Build 0)  -->
<svg version="1.1" id="Capa_1" xmlns="http://www.w3.org/2000/svg" xmlns:xlink="http://www.w3.org/1999/xlink" x="0px" y="0px"
	 viewBox="0 0 512 512" style="enable-background:new 0 0 512 512;" xml:space="preserve">
<path style="fill:#455A64;" d="M496,512H32c-17.632,0-32-14.336-32-32V16C0,7.168,7.168,0,16,0s16,7.168,16,16v464h464
	c8.832,0,16,7.168,16,16S504.832,512,496,512z"/>
<g>
	<path style="fill:#1976D2;" d="M144,256c-8.832,0-16-7.168-16-16v-64c0-8.832,7.168-16,16-16s16,7.168,16,16v64
		C160,248.832,152.832,256,144,256z"/>
	<path style="fill:#1976D2;" d="M144,448c-8.832,0-16-7.168-16-16v-64c0-8.832,7.168-16,16-16s16,7.168,16,16v64
		C160,440.832,152.832,448,144,448z"/>
	<path style="fill:#1976D2;" d="M272,192c-8.832,0-16-7.168-16-16v-64c0-8.832,7.168-16,16-16s16,7.168,16,16v64
		C288,184.832,280.832,192,272,192z"/>
	<path style="fill:#1976D2;" d="M272,384c-8.832,0-16-7.168-16-16v-64c0-8.832,7.168-16,16-16s16,7.168,16,16v64
		C288,376.832,280.832,384,272,384z"/>
	<path style="fill:#1976D2;" d="M400,96c-8.832,0-16-7.168-16-16V16c0-8.832,7.168-16,16-16s16,7.168,16,16v64
		C416,88.832,408.832,96,400,96z"/>
	<path style="fill:#1976D2;" d="M400,288c-8.832,0-16-7.168-16-16v-64c0-8.832,7.168-16,16-16s16,7.168,16,16v64
		C416,280.832,408.832,288,400,288z"/>
</g>
<g>
	<path style="fill:#2196F3;" d="M176,224h-64c-8.832,0-16,7.168-16,16v128c0,8.832,7.168,16,16,16h64c8.832,0,16-7.168,16-16V240
		C192,231.168,184.832,224,176,224z"/>
	<path style="fill:#2196F3;" d="M304,160h-64c-8.832,0-16,7.168-16,16v128c0,8.832,7.168,16,16,16h64c8.832,0,16-7.168,16-16V176
		C320,167.168,312.832,160,304,160z"/>
	<path style="fill:#2196F3;" d="M432,64h-64c-8.832,0-16,7.168-16,16v128c0,8.832,7.168,16,16,16h64c8.832,0,16-7.168,16-16V80
		C448,71.168,440.832,64,432,64z"/>
</g>
<g>
</g>
<g>
</g>
<g>
</g>
<g>
</g>
<g>
</g>
<g>
</g>
<g>
</g>
<g>
</g>
<g>
</g>
<g>
</g>
<g>
</g>
<g>
</g>
<g>
</g>
<g>
</g>
<g>
</g>
</svg>
