<?xml version="1.0" encoding="iso-8859-1"?>
<!-- Generator: Adobe Illustrator 19.0.0, SVG Export Plug-In . SVG Version: 6.00 Build 0)  -->
<svg version="1.1" id="Capa_1" xmlns="http://www.w3.org/2000/svg" xmlns:xlink="http://www.w3.org/1999/xlink" x="0px" y="0px"
	 viewBox="0 0 512 512" style="enable-background:new 0 0 512 512;" xml:space="preserve">
<path style="fill:#455A64;" d="M496,512H32c-17.6,0-32-14.3-32-32V16C0,7.2,7.2,0,16,0s16,7.2,16,16v464h464c8.8,0,16,7.2,16,16
	S504.8,512,496,512z"/>
<path style="fill:#64B5F6;" d="M496,0h-80c-4.3,0-8.3,1.7-11.3,4.7L296.9,112.5l16.7,22.9c7.3,9.9,8.4,23.2,3,34.4
	c-5.4,11.1-16.5,18.1-28.6,18.1h-32v114.9c0,27.1-21.5,49.2-48,49.2h-32c-26.5,0-48-22.1-48-49.2v-21.4l-59.3,59.3
	c-3,3-4.7,7.1-4.7,11.3v80c0,8.8,7.2,16,16,16h416c8.8,0,16-7.2,16-16V16C512,7.2,504.8,0,496,0z"/>
<path style="fill:#2196F3;" d="M288,160L192,32L96,160h64v144c0,8.8,7.2,16,16,16h32c8.8,0,16-7.2,16-16V160H288z"/>
<g>
</g>
<g>
</g>
<g>
</g>
<g>
</g>
<g>
</g>
<g>
</g>
<g>
</g>
<g>
</g>
<g>
</g>
<g>
</g>
<g>
</g>
<g>
</g>
<g>
</g>
<g>
</g>
<g>
</g>
</svg>
