<svg version="1.1" id="Capa_1" xmlns="http://www.w3.org/2000/svg" xmlns:xlink="http://www.w3.org/1999/xlink" x="0px" y="0px" viewBox="0 0 512 512" style="enable-background:new 0 0 512 512;" xml:space="preserve" width="300" height="300" xmlns:svgjs="http://svgjs.dev/svgjs"><g transform="matrix(1,0,0,1,0,0)"><path style="" d="M496,512H32c-17.6,0-32-14.3-32-32V16C0,7.2,7.2,0,16,0s16,7.2,16,16v464h464c8.8,0,16,7.2,16,16&#10;&#9;S504.8,512,496,512z" fill="#455a64" fill-opacity="1" data-original-color="#455a64ff" stroke="none" stroke-opacity="1"/><path style="" d="M507.3,340.7l-57.2-57.2l-40.5,55.4c-6,8.3-15.5,13.1-25.6,13.1s-19.6-4.9-25.6-13.1l-96-131.5&#10;&#9;c-7.3-10-8.5-23.3-3-34.4c5.4-11.1,16.5-18.2,28.6-18.2h32v-1.5L171.3,4.7c-3-3-7.1-4.7-11.3-4.7H80c-8.8,0-16,7.2-16,16v416&#10;&#9;c0,8.8,7.2,16,16,16h416c8.8,0,16-7.2,16-16v-80C512,347.7,510.3,343.7,507.3,340.7z" fill="#64b5f6" fill-opacity="1" data-original-color="#64b5f6ff" stroke="none" stroke-opacity="1"/><path style="" d="M288,192l96,128l96-128h-64V48c0-8.8-7.2-16-16-16h-32c-8.8,0-16,7.2-16,16v144H288z" fill="#2196f3" fill-opacity="1" data-original-color="#2196f3ff" stroke="none" stroke-opacity="1"/><g>
</g><g>
</g><g>
</g><g>
</g><g>
</g><g>
</g><g>
</g><g>
</g><g>
</g><g>
</g><g>
</g><g>
</g><g>
</g><g>
</g><g>
</g></g></svg>