<svg id="color" enable-background="new 0 0 24 24" height="512" viewBox="0 0 24 24" width="512" xmlns="http://www.w3.org/2000/svg"><path d="m15.25 0h-12.5c-1.52 0-2.75 1.23-2.75 2.75v5.25h18v-5.25c0-1.52-1.23-2.75-2.75-2.75z" fill="#2196f3"/><path d="m0 8v8h10.03c-.101-.69.02-1.42.38-2.06l.74-1.32c.64-1.14 1.899-1.75 3.14-1.63.49-1.18 1.64-1.99 2.97-1.99h.74v-1z" fill="#64b5f6"/><path d="m11.15 22.38-.74-1.33c-.64-1.15-.51-2.55.26-3.55-.34-.44-.56-.96-.64-1.5h-10.03v5.25c0 1.52 1.23 2.75 2.75 2.75h10.95c-1.04-.08-2.01-.66-2.55-1.62z" fill="#2196f3"/><path d="m9.083 0h-6.333c-1.52 0-2.75 1.23-2.75 2.75v5.25h9.083z" fill="#1d83d4"/><path d="m9.083 8h-9.083v8h9.083z" fill="#579ed6"/><path d="m9.083 16h-9.083v5.25c0 1.52 1.23 2.75 2.75 2.75h6.333z" fill="#1d83d4"/><circle cx="12.5" cy="4.5" fill="#fff" r="1.5"/><circle cx="5.5" cy="4.5" fill="#fff" r="1.5"/><path d="m5.5 3c-.829 0-1.5.672-1.5 1.5s.671 1.5 1.5 1.5z" fill="#dedede"/><path d="m12.5 3c-.829 0-1.5.672-1.5 1.5s.671 1.5 1.5 1.5z" fill="#dedede"/><path d="m22.674 17.865c.011-.127.017-.246.017-.365s-.006-.238-.017-.365l.83-.617c.495-.368.642-1.055.339-1.597l-.74-1.324c-.31-.553-.995-.774-1.563-.511l-.923.432c-.182-.127-.37-.24-.565-.339l-.104-1.071c-.063-.631-.583-1.108-1.209-1.108h-1.479c-.626 0-1.145.477-1.208 1.109l-.104 1.069c-.195.099-.384.212-.565.339l-.922-.431c-.568-.266-1.255-.042-1.565.511l-.738 1.323c-.304.542-.158 1.229.338 1.597l.83.617c-.011.127-.017.246-.017.365s.006.238.017.365l-.83.617c-.496.368-.642 1.055-.339 1.596l.74 1.325c.309.554.996.775 1.563.511l.923-.432c.182.127.37.24.565.339l.104 1.071c.063.632.583 1.109 1.209 1.109h1.479c.626 0 1.146-.477 1.208-1.109l.104-1.069c.195-.099.384-.212.565-.339l.922.431c.569.265 1.256.042 1.565-.511l.738-1.323c.304-.542.158-1.229-.338-1.597z" fill="#2196f3"/><path d="m18 19.5c-1.105 0-2-.896-2-2s.895-2 2-2 2 .896 2 2-.895 2-2 2z" fill="#fff"/><path d="m18 11h-.739c-.626 0-1.145.477-1.208 1.109l-.104 1.069c-.195.099-.384.212-.565.339l-.922-.431c-.162-.076-.333-.112-.503-.112-.426 0-.84.227-1.063.622l-.738 1.323c-.304.542-.158 1.229.338 1.597l.83.617c-.011.127-.017.246-.017.365s.006.238.017.365l-.83.617c-.496.368-.642 1.055-.339 1.596l.74 1.325c.221.396.635.622 1.061.622.17 0 .341-.036.503-.111l.923-.432c.182.127.37.24.565.339l.104 1.071c.062.633.582 1.11 1.208 1.11h.739v-4.5c-1.105 0-2-.896-2-2s.895-2 2-2z" fill="#1d83d4"/><path d="m18 15.5c-1.105 0-2 .896-2 2 0 1.105.895 2 2 2z" fill="#dedede"/></svg>